<svg xmlns="http://www.w3.org/2000/svg" version="1.1" xmlns:xlink="http://www.w3.org/1999/xlink" xmlns:svgjs="http://svgjs.dev/svgjs" width="250" height="100" viewBox="0 0 500 600">
<rect width="1000" height="600" x="0" y="0" fill="#ff"/>
<g>
<rect width="333.3333333333333" height="333.3333333333333" rx="13.333333333333334" ry="13.333333333333334" y="206.71355920776728" fill="#ffffff" transform="matrix(0.6775384533949705,0,0,0.6775384533949704,0,47.02050982086864)" x="184.4913330078125"/>
<path d="M239.44761101231123 448.38023551257606L239.44761101231123 448.38023551257606Q234.95924745967952 448.38023551257606 230.7756493334611 448.1308819818744Q226.56434525938693 447.8815284511726 221.93745196747648 447.1334678590673Q217.31055867556603 446.38540726696203 211.52001557371403 445.0001098741744L211.52001557371403 445.0001098741744Q213.40402002790512 441.50916044434985 216.06379102205722 438.7662716066304Q218.69585606835358 436.0233827689111 222.24221739388975 434.6380853761235Q225.78857871942589 433.2250820354802 230.27694227205757 433.64067125331644L230.27694227205757 433.64067125331644Q233.46312627546897 433.91773073187403 235.15318909466978 433.9731426275855Q236.8432519138706 434.028554523297 239.25366937732096 434.028554523297L239.25366937732096 434.028554523297Q248.8122213875551 434.028554523297 257.0962997964247 429.23542554425205Q265.38037820529433 424.44229656520713 271.5588045771268 416.07510031277025Q277.73723094895934 407.70790406033336 281.228180378784 396.68093681374444Q284.7191298086086 385.6539695671554 284.7191298086086 373.1862930320674L284.7191298086086 373.1862930320674Q284.7191298086086 353.9306592723203 278.18052611465134 340.46556861442525Q271.66962836854987 327.0004779565302 258.59242098063527 319.9631672011694Q245.51521359272073 312.95356239366436 225.87169656299312 312.95356239366436L225.87169656299312 312.95356239366436Q219.8872118261509 312.95356239366436 214.0966687242989 313.3414456636449Q208.33383157030266 313.7293289336254 203.54070259125768 314.3388597864519L203.54070259125768 314.3388597864519L203.54070259125768 445.9975239969815L184.58983425792388 445.9975239969815L184.58983425792388 303.1733628005842Q194.06526842459078 300.87376912855683 205.61864868043904 299.627001475048Q217.19973488414303 298.38023382153926 225.87169656299312 298.38023382153926L225.87169656299312 298.38023382153926Q251.22263885100546 298.38023382153926 268.92673953083045 307.3569609268026Q286.6308402106555 316.333688032066 295.8569208466206 333.09578648479544Q305.0830014825857 349.8578849375249 305.0830014825857 373.1862930320674L305.0830014825857 373.1862930320674Q305.0830014825857 389.44968442339336 299.87428328570456 403.2195405077017Q294.69327103667905 416.96169064415426 285.57801419213695 427.10206755935917Q276.435051399739 437.2147385267084 264.632317613189 442.8113399935701Q252.80187787878327 448.38023551257606 239.44761101231123 448.38023551257606ZM368.50191612440017 447.99235224259564L368.50191612440017 447.99235224259564Q357.5303607735227 447.99235224259564 348.6090455639709 443.8918719599444Q339.68773035441893 439.81909762514897 333.3430682954519 432.47702144337495Q327.0261121843407 425.1626512094566 323.6182805980833 415.2162159292419Q320.23815495968165 405.297486596883 320.23815495968165 393.5224587581888L320.23815495968165 393.5224587581888Q320.23815495968165 377.3698911582859 326.1672278008124 365.5671573717358Q332.0963006419431 353.7367176373301 343.06785599282057 347.3089377347958Q354.039411343698 340.8811578322616 369.1114469772267 340.8811578322616L369.1114469772267 340.8811578322616Q379.39035363171035 340.8811578322616 387.25884282274376 345.397227332749Q395.12733201377705 349.94100278109215 399.97587288853356 357.78178602426976Q404.82441376328995 365.5948633195916 405.96035762537576 375.5412985998063Q407.0963014874616 385.4600279321652 403.82699964048294 396.1268178566294L403.82699964048294 396.1268178566294L345.9769805176744 396.1268178566294Q348.0549266068558 390.44709854620044 351.9060533588052 386.595971794251Q355.7294741628989 382.77255099015736 362.9330206053942 382.77255099015736L362.9330206053942 382.77255099015736L388.2562569455508 382.77255099015736Q389.14284727693473 375.0702974862585 386.5107822306384 368.8364592187145Q383.87871718434207 362.6026209511705 378.72541088317234 358.9177298863556Q373.59981052985836 355.23283882154067 367.1166187316126 355.23283882154067L367.1166187316126 355.23283882154067Q358.72171653132 355.23283882154067 352.34934852449726 359.7212023741723Q345.9769805176744 364.2095659268041 342.37520729642677 372.82611570994266Q338.7734340751791 381.470371440937 338.7734340751791 393.7441063410348L338.7734340751791 393.7441063410348Q338.7734340751791 405.6022520232963 342.92932625354183 414.5789791285597Q347.05751248404874 423.555706233823 354.23335297868834 428.5981887435697Q361.4368994211836 433.64067125331644 370.49674437001426 433.64067125331644L370.49674437001426 433.64067125331644Q377.3955253860963 433.64067125331644 383.57395175792885 432.1722560169617Q389.75237812976127 430.7315467284626 398.23039817362115 426.43712481082116L398.23039817362115 426.43712481082116L403.21746878765634 439.62515599015876Q393.6312108295665 444.50140281277095 384.65448372430313 446.2468775276833Q375.6777566190397 447.99235224259564 368.50191612440017 447.99235224259564ZM479.02094212099166 445.9975239969815L459.4605429348313 445.9975239969815L420.78303972820265 342.8759860778756L440.7313221843435 342.8759860778756L468.2433284051044 423.25094080740973L469.85027338073803 428.238011421445L471.2355707735255 423.25094080740973L498.5813413071519 342.8759860778756L517.726151275476 342.8759860778756L479.02094212099166 445.9975239969815Z " fill="#ff" transform="matrix(0.6775384533949705,0,0,0.6775384533949704,0,47.02050982086864)"/>
<path d="M615.3214404950562 411.3978993524647L601.157995362239 411.3978993524647L640.2110034331355 303.0185545788314L654.0845534901348 303.0185545788314L693.1375615610314 411.3978993524647L677.9387768717216 411.3978993524647L647.6654482398815 324.0359475756289L646.6301086833889 319.70822822949026L645.5947691268964 324.0359475756289L628.8843886851078 371.88934187671146L627.2485521858496 375.01606733731876L629.0293362230167 374.7261722615009L649.1563372012306 374.7261722615009Q652.7386120666945 374.7261722615009 655.1613066288869 376.21706122285Q657.5840011910793 377.70795018419926 659.1991308992076 380.17205832865136Q660.7935538162061 382.61545968197356 661.8288933726985 385.452290066763L661.8288933726985 385.452290066763L624.2667742631513 385.452290066763L615.3214404950562 411.3978993524647ZM738.7753292112201 412.88878831381385L738.7753292112201 412.88878831381385Q728.3391064817757 412.88878831381385 720.9881956306791 407.56714299344253Q713.6372847795825 402.2247908819412 709.8065284205603 393.0516824114178Q705.9757720615381 383.8992807320243 705.9757720615381 372.4898388194771L705.9757720615381 372.4898388194771Q705.9757720615381 363.5445050513821 708.8333092374575 356.3385417381944Q711.7115532045065 349.1532852161365 716.6190627022808 344.0180010159338Q721.547278991185 338.8620100246012 727.7386095390101 336.1494203865909Q733.9299400868352 333.41612395745074 740.5561132483871 333.41612395745074L740.5561132483871 333.41612395745074Q743.9106134114228 333.41612395745074 747.6792493970553 333.9545005268269Q751.447885382688 334.47217030507306 755.4650028618788 335.9630592664223L755.4650028618788 335.9630592664223Q753.4564441222834 339.60745450527577 750.1019439592477 341.92661511181905Q746.7474437962122 344.2250689272323 741.4465052669706 344.16294855384274L741.4465052669706 344.16294855384274Q736.3112210667679 344.0180010159338 731.5693658980323 346.875538191853Q726.8482175204266 349.75378215890214 723.7836124332088 356.0486466623764Q720.7190073459911 362.3435111658508 720.7190073459911 372.4898388194771L720.7190073459911 372.4898388194771Q720.7190073459911 381.12457072062443 723.0795815347939 387.83357104669574Q725.4194489324669 394.54257137276704 729.9335293987741 398.35262094065934Q734.4476098650815 402.16267050855174 741.0116626532439 402.16267050855174L741.0116626532439 402.16267050855174Q746.1469468534466 402.16267050855174 751.0751631423508 399.5122012439309Q755.9826726401251 396.8617319793102 760.5381666886921 391.2708983742508L760.5381666886921 391.2708983742508L760.5381666886921 298.3802333657451L774.3910099545616 298.3802333657451L774.3910099545616 385.9078394716197Q774.3910099545616 394.8531732397148 775.0743340618466 401.1480377431891Q775.7369513780017 407.4429022466634 776.6273433965852 411.3978993524647L776.6273433965852 411.3978993524647L766.6466700719976 411.3978993524647Q764.8658860348306 409.8241832265961 763.7063057315589 408.0848127716887Q762.5467254282875 406.3247355256515 761.4285587072756 403.3429576029531L761.4285587072756 403.3429576029531L761.1386636314577 400.9616766230205L759.9376697459264 403.48790514086204Q755.3821756973595 408.7060165055842 749.3979130608328 410.797402409699Q743.3929436331765 412.88878831381385 738.7753292112201 412.88878831381385ZM813.7546198924057 411.3978993524647L799.4462272216796 411.3978993524647L799.4462272216796 334.32722276716413L813.7546198924057 334.32722276716413L813.7546198924057 411.3978993524647ZM806.6107769526076 320.9092221150215L806.6107769526076 320.9092221150215Q802.8007273847153 320.9092221150215 800.2330852846138 318.3208732237904Q797.6654431845126 315.75323112368903 797.6654431845126 311.9638883469265L797.6654431845126 311.9638883469265Q797.6654431845126 308.0088912411252 800.2330852846138 305.44124914102383Q802.8007273847153 302.85290024979264 806.6107769526076 302.85290024979264L806.6107769526076 302.85290024979264Q810.545067267279 302.85290024979264 813.0505889939908 305.44124914102383Q815.5561107207026 308.0088912411252 815.5561107207026 311.9638883469265L815.5561107207026 311.9638883469265Q815.5561107207026 315.75323112368903 813.0505889939908 318.3208732237904Q810.545067267279 320.9092221150215 806.6107769526076 320.9092221150215ZM866.0806810775358 413.0337358517228L866.0806810775358 413.0337358517228Q853.9465014754438 413.0337358517228 847.4238622695412 405.06162126673064Q840.9012230636387 397.0895066817385 840.9012230636387 382.9260615489213L840.9012230636387 382.9260615489213L840.9012230636387 344.59779116756965L827.1726205445483 344.59779116756965L827.1726205445483 337.88879084149835L840.9012230636387 334.32722276716413L840.9012230636387 314.63506440267713L854.0086218488335 310.4729993855773L854.0086218488335 384.5618980481795Q854.0086218488335 392.24411755735366 857.3217084296094 397.42081533981616Q860.6555018015152 402.59751312227854 866.0806810775358 402.59751312227854L866.0806810775358 402.59751312227854Q869.0003386268446 402.59751312227854 871.7129282648549 402.07984334403227Q874.4462246939951 401.5621735657861 878.3183946352771 400.36117968025474L878.3183946352771 400.36117968025474L881.5900676337932 409.76206285320654Q875.9371136553442 411.625674054893 872.789681403607 412.3297049533079Q869.6629559429999 413.0337358517228 866.0806810775358 413.0337358517228ZM880.4097805393918 344.59779116756965L871.8992893850237 344.59779116756965Q868.399841684079 344.59779116756965 865.9771471218866 343.23114295299956Q863.5544525596941 341.8437879472996 861.9600296426958 339.5039205496266Q860.3448999345675 337.14334636082367 859.3716807514646 334.32722276716413L859.3716807514646 334.32722276716413L880.4097805393918 334.32722276716413L880.4097805393918 344.59779116756965ZM907.245781843677 448.06962644342843L907.245781843677 448.06962644342843Q904.2640039209788 447.9246789055195 900.9095037579431 447.36559554501355Q897.5550035949074 446.8065121845076 894.4075713431702 445.83329300140474L894.4075713431702 445.83329300140474L897.9898462086343 435.99756721472613Q900.4539543530863 436.66018453088134 902.7938217507593 437.0121999800888Q905.1543959395623 437.3435086381663 907.245781843677 437.3435086381663L907.245781843677 437.3435086381663Q912.9815629866454 437.3435086381663 916.4395971053303 433.1607368299367Q919.918338015145 428.99867181283685 922.527393697506 421.87553566416864Q925.136449379867 414.7523995155003 928.2631748404746 405.8898929119247L928.2631748404746 405.8898929119247L951.3719537413866 334.32722276716413L965.8252939500218 334.32722276716413L938.5544500320099 409.76206285320654Q935.5726721093114 417.6513502736793 932.880789262431 424.54671171991924Q930.1889064155504 431.44207316615916 926.9172334170343 436.7430116954007Q923.6455604185179 442.04395022464223 918.9451188320421 445.0257281473406Q914.2446772455663 448.00750607003897 907.245781843677 448.06962644342843ZM919.4627886102884 409.9070103911155L919.4627886102884 409.9070103911155L891.5914477495106 334.32722276716413L906.1897354960548 334.32722276716413L922.5895140708957 384.70684558608843Q924.2253505701539 389.4901143370837 924.2253505701539 394.3562102525983Q924.2253505701539 399.24301295924295 922.9622363112329 403.3429576029531Q921.699122052312 407.4429022466634 919.4627886102884 409.9070103911155ZM999.9707925231438 412.88878831381385L999.9707925231438 412.88878831381385Q992.2264526405801 412.88878831381385 986.594205453261 410.0933715112841Q980.9619582659419 407.29795470875445 977.9387667609839 402.53539274888897Q974.9155752560258 397.7521239978937 974.9155752560258 391.7264477791075L974.9155752560258 391.7264477791075Q974.9155752560258 384.18917580784216 978.8705723618272 379.24025272780807Q982.8255694676283 374.2706228566442 991.8744371913727 371.22672456055625Q1000.9440117062469 368.1621194733385 1016.2256235600759 366.3813354361715L1016.2256235600759 366.3813354361715Q1015.9150216931281 368.1621194733385 1014.9210957188953 370.6262276177906Q1013.9064629535327 373.0903357622427 1011.6701295115089 375.1610148752277Q1009.4337960694851 377.25240077934257 1005.478798963684 377.8528977221082L1005.478798963684 377.8528977221082Q998.9354529666515 378.8882372786006 995.539539221356 380.9175028093259Q992.1436254760607 382.9260615489213 990.9219247993996 385.4937036490227Q989.6795173316085 388.06134574912414 989.6795173316085 390.8153489693941L989.6795173316085 390.8153489693941Q989.6795173316085 395.37084301796096 992.9718971212548 398.76675676325635Q996.2435701197709 402.16267050855174 1001.9172308893498 402.16267050855174L1001.9172308893498 402.16267050855174Q1006.9696879250331 402.16267050855174 1012.1256789163657 399.6157351995802Q1017.2609631165684 397.0895066817385 1021.588682462707 391.41584591215974L1021.588682462707 391.41584591215974L1021.588682462707 363.5445050513821Q1021.588682462707 354.66129165667655 1017.3023766988282 349.11187163387683Q1013.0160709349492 343.5624516110771 1002.8076229079333 343.5624516110771L1002.8076229079333 343.5624516110771Q998.7697986376126 343.5624516110771 994.8355083229411 344.39072325627114Q990.8805112171398 345.1982881103353 985.5174523145089 347.1447264765411L985.5174523145089 347.1447264765411L982.0801249869538 337.88879084149835Q989.3896222557906 334.76206538089104 994.9804558608502 333.7888461977881Q1000.5712894659094 332.836333805815 1005.478798963684 332.836333805815L1005.478798963684 332.836333805815Q1019.8078984255397 332.836333805815 1027.6971858460124 341.1397570488847Q1035.607180057615 349.4431802919544 1035.607180057615 364.5798446078745L1035.607180057615 364.5798446078745L1035.607180057615 385.9078394716197Q1035.607180057615 394.8531732397148 1036.3112109560302 401.1480377431891Q1037.0152418544449 407.4429022466634 1037.988461037548 411.3978993524647L1037.988461037548 411.3978993524647L1027.8421333839215 411.3978993524647Q1025.7714542709364 410.1347850935439 1024.570460385405 408.12622635394837Q1023.369466499874 406.0969608232232 1022.4790744812905 403.7985070078098L1022.4790744812905 403.7985070078098L1022.3341269433814 401.1066241609294L1020.6982904441235 403.7985070078098Q1015.0246296745446 409.4514609862588 1010.1792405501598 411.1701246500363Q1005.3338514257749 412.88878831381385 999.9707925231438 412.88878831381385ZM1112.3879615670976 411.3978993524647L1098.2245164342808 411.3978993524647L1098.2245164342808 304.3437892111418Q1103.81535003934 303.2256224901299 1108.7228595371143 302.48017800945536Q1113.6510758260188 301.7347335287808 1118.4964649504036 301.3413044973136Q1123.341854074788 300.92716867471665 1128.7877401419387 300.92716867471665L1128.7877401419387 300.92716867471665Q1140.7769722061216 300.92716867471665 1149.6187720185676 305.27559481198506Q1158.4605718310136 309.64472774038336 1163.305960955398 316.9542250092203Q1168.1513500797828 324.26372227805723 1168.1513500797828 332.98128134372394L1168.1513500797828 332.98128134372394Q1168.1513500797828 341.9887354852085 1163.1403066263592 348.7805629757993Q1158.1499699640653 355.57239046638995 1150.4056300815018 359.5066807810614L1150.4056300815018 359.5066807810614L1146.8233552160377 360.70767466659265L1149.805133138736 361.9086685521239Q1155.3131395792761 365.5530637909775 1158.2949175019744 370.9161226936086Q1161.2766954246727 376.2791815962396 1163.1403066263592 382.8018208021423Q1165.0039178280458 389.32446000804487 1166.9503561942515 396.5925436946221Q1168.8967945604577 403.8606273811994 1172.3134150968826 411.3978993524647L1172.3134150968826 411.3978993524647L1157.404525483391 411.3978993524647Q1154.4227475606926 404.9787941022113 1152.6419635235256 397.710710415634Q1150.8404726952285 390.44262672905677 1148.9147411201525 383.671506029596Q1146.9683027539468 376.8796785390052 1143.7380433376902 371.70298075654284Q1140.487077130304 366.52628297408046 1134.6063484494266 364.28994953205665L1134.6063484494266 364.28994953205665Q1130.3407494766775 364.72479214578345 1126.427165953136 364.47631065222527Q1122.5135824295944 364.2071223675373 1118.3515174124946 363.2339031844343L1118.3515174124946 363.2339031844343Q1119.4696841335062 360.70767466659265 1121.3747089174526 358.6577023447376Q1123.2590269102689 356.6077300228824 1125.8059622192404 355.4067361373511Q1128.3321907370819 354.22644904294975 1131.4589161976892 354.1436218784303L1131.4589161976892 354.1436218784303Q1136.6149071890218 353.99867434052135 1141.5638302690559 351.2446711202514Q1146.53346014022 348.4906678999813 1149.805133138736 343.70739914898604Q1153.0768061372523 338.9448371891207 1153.0768061372523 332.836333805815L1153.0768061372523 332.836333805815Q1153.0768061372523 326.93489833380784 1149.805133138736 322.17233637394236Q1146.53346014022 317.3890676229471 1141.0047469085498 314.59365082041745Q1135.49674046801 311.7982340178877 1128.7877401419387 311.7982340178877L1128.7877401419387 311.7982340178877Q1124.6877954982283 311.7982340178877 1121.209054588414 311.9638883469265Q1117.7510204697287 312.10883588483546 1112.3879615670976 313.1441754413279L1112.3879615670976 313.1441754413279L1112.3879615670976 411.3978993524647ZM1213.4578090718942 412.88878831381385L1213.4578090718942 412.88878831381385Q1205.7134691893302 412.88878831381385 1200.0812220020111 410.0933715112841Q1194.448974814692 407.29795470875445 1191.4464901008637 402.53539274888897Q1188.4232985959056 397.7521239978937 1188.4232985959056 391.7264477791075L1188.4232985959056 391.7264477791075Q1188.4232985959056 384.18917580784216 1192.378295701707 379.24025272780807Q1196.3125860163786 374.2706228566442 1205.3821605312528 371.22672456055625Q1214.4310282549968 368.1621194733385 1229.7126401088262 366.3813354361715L1229.7126401088262 366.3813354361715Q1229.4227450330081 368.1621194733385 1228.4081122676457 370.6262276177906Q1227.4141862934125 373.0903357622427 1225.1778528513892 375.1610148752277Q1222.9415194093654 377.25240077934257 1218.986522303564 377.8528977221082L1218.986522303564 377.8528977221082Q1212.4224695154016 378.8882372786006 1209.0265557701064 380.9175028093259Q1205.630642024811 382.9260615489213 1204.4089413481497 385.4937036490227Q1203.1872406714888 388.06134574912414 1203.1872406714888 390.8153489693941L1203.1872406714888 390.8153489693941Q1203.1872406714888 395.37084301796096 1206.4589136700047 398.76675676325635Q1209.730586668521 402.16267050855174 1215.4042474381 402.16267050855174L1215.4042474381 402.16267050855174Q1220.4774112649134 402.16267050855174 1225.6126954651158 399.6157351995802Q1230.7686864564484 397.0895066817385 1235.0756990114573 391.41584591215974L1235.0756990114573 391.41584591215974L1235.0756990114573 363.5445050513821Q1235.0756990114573 354.66129165667655 1230.7893932475781 349.11187163387683Q1226.5030874836993 343.5624516110771 1216.2946394566834 343.5624516110771L1216.2946394566834 343.5624516110771Q1212.2775219774926 343.5624516110771 1208.3225248716913 344.39072325627114Q1204.36752776589 345.1982881103353 1199.0044688632588 347.1447264765411L1199.0044688632588 347.1447264765411L1195.5671415357037 337.88879084149835Q1202.876638804541 334.76206538089104 1208.4674724096003 333.7888461977881Q1214.0583060146596 332.836333805815 1218.986522303564 332.836333805815L1218.986522303564 332.836333805815Q1233.29491497429 332.836333805815 1241.2049091858926 341.1397570488847Q1249.0941966063656 349.4431802919544 1249.0941966063656 364.5798446078745L1249.0941966063656 364.5798446078745L1249.0941966063656 385.9078394716197Q1249.0941966063656 394.8531732397148 1249.7982275047802 401.1480377431891Q1250.522965194325 407.4429022466634 1251.475477586298 411.3978993524647L1251.475477586298 411.3978993524647L1241.3498567238016 411.3978993524647Q1239.2584708196869 410.1347850935439 1238.0574769341556 408.12622635394837Q1236.877189839754 406.0969608232232 1235.9867978211705 403.7985070078098L1235.9867978211705 403.7985070078098L1235.8211434921318 401.1066241609294L1234.1853069928738 403.7985070078098Q1228.5323530144246 409.4514609862588 1223.6869638900398 411.1701246500363Q1218.841574765655 412.88878831381385 1213.4578090718942 412.88878831381385ZM1262.8227991254557 448.3802283103762L1262.8227991254557 448.3802283103762L1256.4036938752024 440.47023409877363Q1264.5207559981036 433.47133869688446 1268.558580268424 428.2532273321623Q1272.5756977476149 423.0351159674402 1273.8802255887954 417.81700460271804Q1275.184753429976 412.598893237996 1275.184753429976 405.5792910449769L1275.184753429976 405.5792910449769L1275.184753429976 334.32722276716413L1289.3481985627932 334.32722276716413L1289.3481985627932 405.5792910449769Q1289.3481985627932 413.4892852565795 1287.3396398231976 420.26040595604036Q1285.3310810836024 427.052233446631 1279.6160067317637 433.802647354962Q1273.9216391710552 440.553061263293 1262.8227991254557 448.3802283103762ZM1282.204355622995 320.9092221150215L1282.204355622995 320.9092221150215Q1278.3114788905832 320.9092221150215 1275.868077537261 318.36228680605007Q1273.403969392809 315.8360582882084 1273.403969392809 311.9638883469265L1273.403969392809 311.9638883469265Q1273.403969392809 307.9260640766058 1275.868077537261 305.3170083942448Q1278.3114788905832 302.70795271188365 1282.204355622995 302.70795271188365L1282.204355622995 302.70795271188365Q1286.2214731021859 302.70795271188365 1288.830528784547 305.3170083942448Q1291.439584466908 307.9260640766058 1291.439584466908 311.9638883469265L1291.439584466908 311.9638883469265Q1291.439584466908 315.8360582882084 1288.830528784547 318.36228680605007Q1286.2214731021859 320.9092221150215 1282.204355622995 320.9092221150215Z " fill="#ffffff" transform="matrix(0.6775384533949705,0,0,0.6775384533949704,0,47.02050982086864)"/>
</g>
<defs>
<filter id="filter0_d" x="23.0713" y="7.5" width="180.652" height="30.793" filterUnits="userSpaceOnUse" color-interpolation-filters="sRGB">
<feFlood flood-opacity="0" result="BackgroundImageFix"/>
<feColorMatrix in="SourceAlpha" type="matrix" values="0 0 0 0 0 0 0 0 0 0 0 0 0 0 0 0 0 0 127 0"/>
<feOffset dy="4"/>
<feGaussianBlur stdDeviation="2"/>
<feColorMatrix type="matrix" values="0 0 0 0 0 0 0 0 0 0 0 0 0 0 0 0 0 0 0.25 0"/>
<feBlend mode="normal" in2="BackgroundImageFix" result="effect1_dropShadow"/>
<feBlend mode="normal" in="SourceGraphic" in2="effect1_dropShadow" result="shape"/>
</filter>
</defs>
</svg>